<svg class="animated" id="freepik_stories-segment" xmlns="http://www.w3.org/2000/svg" viewBox="0 0 750 500" version="1.1" xmlns:xlink="http://www.w3.org/1999/xlink" xmlns:svgjs="http://svgjs.com/svgjs"><style>svg#freepik_stories-segment:not(.animated) .animable {opacity: 0;}svg#freepik_stories-segment.animated #freepik--background-complete--inject-14 {animation: 1s 1 forwards cubic-bezier(.36,-0.01,.5,1.38) slideUp;animation-delay: 0s;}svg#freepik_stories-segment.animated #freepik--Charts--inject-14 {animation: 1s 1 forwards cubic-bezier(.36,-0.01,.5,1.38) fadeIn;animation-delay: 0s;}svg#freepik_stories-segment.animated #freepik--character-2--inject-14 {animation: 1s 1 forwards cubic-bezier(.36,-0.01,.5,1.38) zoomOut;animation-delay: 0s;}svg#freepik_stories-segment.animated #freepik--character-1--inject-14 {animation: 1s 1 forwards cubic-bezier(.36,-0.01,.5,1.38) slideRight;animation-delay: 0s;}            @keyframes slideUp {                0% {                    opacity: 0;                    transform: translateY(30px);                }                100% {                    opacity: 1;                    transform: inherit;                }            }                    @keyframes fadeIn {                0% {                    opacity: 0;                }                100% {                    opacity: 1;                }            }                    @keyframes zoomOut {                0% {                    opacity: 0;                    transform: scale(1.5);                }                100% {                    opacity: 1;                    transform: scale(1);                }            }                    @keyframes slideRight {                0% {                    opacity: 0;                    transform: translateX(30px);                }                100% {                    opacity: 1;                    transform: translateX(0);                }            }        </style><g id="freepik--background-complete--inject-14" class="animable" style="transform-origin: 393.65px 240.145px;"><path d="M170.2,138.64l35.43-2.94a35.55,35.55,0,1,1-55.5-26.4Z" style="fill: rgb(235, 235, 235); transform-origin: 170.202px 141.746px;" id="el3kjhv4sn5l1" class="animable"></path><rect x="109.22" y="399.56" width="14.79" height="18.65" style="fill: rgb(224, 224, 224); transform-origin: 116.615px 408.885px;" id="elu1bclxwc3qj" class="animable"></rect><rect x="129.8" y="372.23" width="13.83" height="45.98" style="fill: rgb(224, 224, 224); transform-origin: 136.715px 395.22px;" id="eltn1i5cxsakt" class="animable"></rect><rect x="149.8" y="390.34" width="13.95" height="27.87" style="fill: rgb(224, 224, 224); transform-origin: 156.775px 404.275px;" id="elqhgvux393en" class="animable"></rect><rect x="169.73" y="378.39" width="14.55" height="39.83" style="fill: rgb(224, 224, 224); transform-origin: 177.005px 398.305px;" id="elidf8ell0j5k" class="animable"></rect><path d="M559.13,62.07s85.23,12.45,78,91.75L549.33,148Z" style="fill: rgb(235, 235, 235); transform-origin: 593.448px 107.945px;" id="elwz34d491hb" class="animable"></path><path d="M262.74,230.26l-6.23-12.36a17.69,17.69,0,0,0-8.25,9.07,16.37,16.37,0,0,0,1.44,15.28,18.15,18.15,0,0,0,1.19,1.66l0,0h0l13.27-10.78Z" style="fill: rgb(224, 224, 224); transform-origin: 255.583px 230.905px;" id="elr8nhzajmgnj" class="animable"></path><path d="M276.24,218.8A16.42,16.42,0,0,0,260,216.35l-.5.19-.31.13c-.3.13-.61.27-.91.42a.05.05,0,0,0,0,0h0l6.23,12.35,1.47,2.91,16.56-4.16h0a15.85,15.85,0,0,0-1.27-3.38A17.86,17.86,0,0,0,276.24,218.8Z" style="fill: rgb(235, 235, 235); transform-origin: 270.41px 223.782px;" id="el3cqgq8nadof" class="animable"></path><path d="M265.76,234.32,252.49,245.1a17.09,17.09,0,0,0,29.85-14.94l-16.56,4.15" style="fill: rgb(245, 245, 245); transform-origin: 267.675px 240.796px;" id="elrxmjyrv8z5q" class="animable"></path><polygon points="350.92 308.2 346.29 306.66 341.65 305.13 342.64 309.91 343.63 314.69 346.15 312.44 356.99 324.63 359.24 322.62 348.4 310.44 350.92 308.2" style="fill: rgb(224, 224, 224); transform-origin: 350.445px 314.88px;" id="el3m5hejufv69" class="animable"></polygon><path d="M639.39,273.32h30.48a30.48,30.48,0,1,1-31.18-30.47Z" style="fill: rgb(224, 224, 224); transform-origin: 639.39px 273.326px;" id="eltpi1xhpbz9" class="animable"></path><path d="M647.61,265.89l-.69-30.48A32.16,32.16,0,0,1,668.86,244a31.37,31.37,0,0,1,9.22,21.37Z" style="fill: rgb(245, 245, 245); transform-origin: 662.5px 250.65px;" id="elzlmn1bxjbop" class="animable"></path></g><g id="freepik--Charts--inject-14" class="animable" style="transform-origin: 372.333px 261.178px;"><path d="M467.53,151a2.08,2.08,0,0,1,0-.37c0-.28,0-.62,0-1,0-.94,0-2.23-.06-3.84,0-3.31-.07-7.93-.12-13.4l.24.23-14.79,0c-.06.06.49-.49.25-.26h0v5.06c0,1.65,0,3.27,0,4.84,0,3.13,0,6.06,0,8.73l-.22-.22,10.68.12,3,.05a10.3,10.3,0,0,1,1.1,0,7.66,7.66,0,0,1-1,.05l-3,0-10.81.12h-.21V151c0-2.67,0-5.6,0-8.73,0-1.57,0-3.19,0-4.84,0-.83,0-1.67,0-2.52v-2.54h0c-.23.24.32-.32.27-.26l14.79,0h.23v.23c-.05,5.53-.09,10.2-.12,13.56,0,1.58,0,2.85-.06,3.78,0,.4,0,.72,0,1S467.53,151.05,467.53,151Z" style="fill: rgb(38, 50, 56); transform-origin: 460.207px 141.608px;" id="elwtmm6asxa7" class="animable"></path><path d="M487.14,151a1.35,1.35,0,0,1,0-.24c0-.18,0-.41,0-.68,0-.63,0-1.5,0-2.61,0-2.29,0-5.57-.07-9.65,0-8.21-.07-19.66-.11-32.8l.25.25H473.32c.51-.52.14-.14.25-.25h0v13.5c0,4.34,0,8.5,0,12.41,0,7.81-.05,14.65-.07,20l-.17-.17,10.14.1,2.72,0h.72l.25,0s-.07,0-.22,0h-.68l-2.7,0-10.23.1h-.16V151c0-5.4,0-12.24-.07-20,0-3.91,0-8.07,0-12.41q0-3.26,0-6.65v-6.85h0c.12-.12-.26.25.27-.27h14.07v.25c0,13.21-.08,24.72-.11,33,0,4.06-.06,7.32-.08,9.6q0,1.62,0,2.55c0,.26,0,.48,0,.65S487.14,151.05,487.14,151Z" style="fill: rgb(38, 50, 56); transform-origin: 480.259px 127.923px;" id="ely89vmpvua8" class="animable"></path><path d="M507.27,151a4.38,4.38,0,0,1,0-.56c0-.4,0-.91,0-1.56,0-1.4,0-3.36-.07-5.8,0-5-.07-11.88-.12-20l.25.25H493.32c-.06.06.49-.49.26-.25h0V131c0,2.55,0,5,0,7.37,0,4.7,0,9-.05,12.64l-.19-.19,10.14.1,2.8.05.74,0,.27,0a8,8,0,0,1-.94,0l-2.75,0-10.26.1h-.2V151c0-3.67,0-7.94-.05-12.64,0-2.36,0-4.82,0-7.37V123.2h0l.27-.27,13.95,0h.24v.24c-.05,8.14-.09,15.12-.12,20.12,0,2.42-.05,4.35-.06,5.74,0,.62,0,1.12,0,1.51A2.9,2.9,0,0,1,507.27,151Z" style="fill: rgb(38, 50, 56); transform-origin: 500.32px 137px;" id="el7kxtef7po9o" class="animable"></path><path d="M527.8,151a.58.58,0,0,1,0-.21c0-.16,0-.35,0-.59,0-.55,0-1.29,0-2.24,0-2,0-4.81-.07-8.33,0-7.1-.07-17-.12-28.46l.26.25H513.25c.51-.52.14-.13.26-.25h0v2.92c0,1,0,1.95,0,2.9v5.67c0,3.71,0,7.27,0,10.65,0,6.75,0,12.75-.06,17.67l-.17-.18,10.62.1,2.9,0,.75,0,.28,0a1.1,1.1,0,0,1-.24,0l-.73,0-2.85,0-10.73.1h-.18V151c0-4.92,0-10.92-.06-17.67l0-10.65V111.23h0c.11-.12-.27.25.26-.27h14.8v.25c0,11.52-.09,21.49-.12,28.63,0,3.5,0,6.3-.07,8.27,0,.93,0,1.66,0,2.19A6.5,6.5,0,0,1,527.8,151Z" style="fill: rgb(38, 50, 56); transform-origin: 520.555px 130.98px;" id="el806gu7jwbg" class="animable"></path><path d="M275.34,352.63l1,0,3,0,11.64-.05,42.87-.09-.19.19a58.3,58.3,0,0,0-5.74-25,61.09,61.09,0,0,0-7.72-12,59.83,59.83,0,0,0-11-10.28,59.13,59.13,0,0,0-13.93-7.42,62.42,62.42,0,0,0-7.84-2.26,57.71,57.71,0,0,0-41.36,6.7,59.11,59.11,0,0,0-23.17,25,57.61,57.61,0,0,0-5.52,31.42,58.47,58.47,0,0,0,29.11,44.61l-.26.07c9-15.69,16.23-28.41,21.27-37.21l5.79-10.1,1.52-2.61c.34-.58.52-.87.52-.87s-.16.32-.49.92-.84,1.5-1.49,2.66l-5.72,10.17c-5,8.8-12.19,21.53-21.07,37.23l-.1.17-.16-.09a58.87,58.87,0,0,1-29.4-44.9,58.17,58.17,0,0,1,5.54-31.7,59.58,59.58,0,0,1,23.37-25.21,58.25,58.25,0,0,1,41.72-6.75,62.6,62.6,0,0,1,7.91,2.29,59.36,59.36,0,0,1,14,7.5,59.23,59.23,0,0,1,18.86,22.5,58.42,58.42,0,0,1,5.73,25.21v.19h-.19l-42.79-.09-11.67-.05-3,0Z" style="fill: rgb(38, 50, 56); transform-origin: 275.298px 348.91px;" id="elca6qmm5ecu6" class="animable"></path><path d="M456.31,390.32l26.94-4.12a27.25,27.25,0,1,1-23.95-23Z" style="fill: rgb(38, 50, 56); transform-origin: 456.308px 390.285px;" id="el4wd9v39bcd2" class="animable"></path><path d="M465.05,363.32l-3.27,20.88,20.5-3.85S479.27,368.65,465.05,363.32Z" style="fill: rgb(38, 50, 56); transform-origin: 472.03px 373.76px;" id="elhazvnvjq439" class="animable"></path><path d="M399,207.79l75.83,45A88.25,88.25,0,0,1,399,296c-48.36,0-88.16-39.8-88.16-88.16,0-47.87,39-87.44,86.85-88.15Z" style="fill: #CE78D5; transform-origin: 392.835px 207.845px;" id="elij47iibm78" class="animable"></path><g id="el0opg40tcwxb"><path d="M316.89,175.8l44.3-3.88-10.11-38S328,149.24,316.89,175.8Z" style="opacity: 0.3; transform-origin: 339.04px 154.86px;" class="animable" id="elfa557k0adi"></path></g></g><g id="freepik--character-2--inject-14" class="animable" style="transform-origin: 563.247px 308.515px;"><path d="M685.42,357.11l-8.42-.45.74-15.78,12.33.53,0,1c0,4.37-.12,22.2-1.14,25.07C687.81,370.67,685.42,357.11,685.42,357.11Z" style="fill: #CE78D5; transform-origin: 683.535px 354.423px;" id="elofk9bce7rhj" class="animable"></path><g id="elqkstsshp5ma"><g style="opacity: 0.5; transform-origin: 687.588px 344.19px;" class="animable" id="el1dvx37ydro7"><path d="M689.68,347.12A5.46,5.46,0,0,1,686.4,345a5.31,5.31,0,0,1-1-3.74l4.41.2Z" style="fill: rgb(255, 255, 255); transform-origin: 687.588px 344.19px;" id="elnyv0m5qbpsb" class="animable"></path></g></g><g id="elskkh27e1xu"><g style="opacity: 0.4; transform-origin: 688.482px 354.707px;" class="animable" id="elv75rarl9lio"><path d="M686.82,363.75s1.14,4.76,1.94,4.21,1.64-18.57,1.31-26.55h-.36l-.79,21S686.9,362.83,686.82,363.75Z" style="fill: rgb(255, 255, 255); transform-origin: 688.482px 354.707px;" id="elkt41sdz9k9" class="animable"></path></g></g><path d="M689.72,341.17s0,.09,0,.27,0,.49,0,.78c0,.78,0,1.74,0,2.88,0,2.42-.1,5.78-.27,9.48s-.39,7-.59,9.46c-.1,1.13-.18,2.09-.25,2.87,0,.28-.06.54-.08.77s0,.27,0,.27a.92.92,0,0,1,0-.27c0-.23,0-.49,0-.78.05-.78.11-1.74.19-2.87.16-2.42.36-5.76.53-9.46s.27-7.05.33-9.48c0-1.13,0-2.09.07-2.87,0-.29,0-.55,0-.78A.94.94,0,0,1,689.72,341.17Z" style="fill: rgb(38, 50, 56); transform-origin: 689.12px 354.56px;" id="elyjamp18530b" class="animable"></path><path d="M689.17,362.45a6.38,6.38,0,0,0-1.4.47,6.25,6.25,0,0,0-1.14.93,2.12,2.12,0,0,1,1-1.09A2.18,2.18,0,0,1,689.17,362.45Z" style="fill: rgb(38, 50, 56); transform-origin: 687.9px 363.134px;" id="el8nuk3yrvi2b" class="animable"></path><path d="M687,357.69s-.26.25-.63.47a1.79,1.79,0,0,1-.72.3s.25-.26.62-.47S687,357.64,687,357.69Z" style="fill: rgb(38, 50, 56); transform-origin: 686.325px 358.07px;" id="el122wmj2iuroq" class="animable"></path><path d="M686.4,356.38s-.14.27-.4.54-.49.44-.53.4.14-.28.4-.54S686.36,356.34,686.4,356.38Z" style="fill: rgb(38, 50, 56); transform-origin: 685.932px 356.85px;" id="elx9ewntqn3um" class="animable"></path><path d="M685,355.5a2,2,0,0,1,.07.83,2,2,0,0,1-.13.82,2,2,0,0,1-.07-.83A2,2,0,0,1,685,355.5Z" style="fill: rgb(38, 50, 56); transform-origin: 684.97px 356.325px;" id="elqchdabcqiq" class="animable"></path><path d="M683.91,355.17a1.65,1.65,0,0,1,.23.93,1.8,1.8,0,0,1-.17.95,4.45,4.45,0,0,1,0-.94A5.64,5.64,0,0,1,683.91,355.17Z" style="fill: rgb(38, 50, 56); transform-origin: 684.028px 356.11px;" id="elitr4utkaqnr" class="animable"></path><path d="M685.62,358.16a2.9,2.9,0,0,1-.06,1,6.09,6.09,0,0,1-.28,1.07,3.34,3.34,0,0,1-.29.61.56.56,0,0,1-.32.23.38.38,0,0,1-.4-.17,1.85,1.85,0,0,1,.65-2.27,1.69,1.69,0,0,1,.69-.3.52.52,0,0,1,.27,0,3.07,3.07,0,0,0-.88.42,1.87,1.87,0,0,0-.61.84,1.61,1.61,0,0,0,0,1.22c.11.16.31.11.42-.06a3.2,3.2,0,0,0,.27-.56,7,7,0,0,0,.32-1C685.57,358.54,685.59,358.16,685.62,358.16Z" style="fill: rgb(38, 50, 56); transform-origin: 684.997px 359.619px;" id="elezfbrcldwpp" class="animable"></path><path d="M685.65,358.42a1,1,0,0,1-.71.09,1.71,1.71,0,0,1-.72-.31,1,1,0,0,1-.48-.87.39.39,0,0,1,.48-.29,1,1,0,0,1,.45.19,3.05,3.05,0,0,1,.59.51,1.49,1.49,0,0,1,.38.6s-.17-.21-.48-.51a2.93,2.93,0,0,0-.59-.45c-.21-.15-.59-.26-.64,0s.2.52.4.69a1.51,1.51,0,0,0,.64.31A3.1,3.1,0,0,0,685.65,358.42Z" style="fill: rgb(38, 50, 56); transform-origin: 684.695px 357.783px;" id="elf4koiuxvymv" class="animable"></path><path d="M685.38,341.29s-.06.45,0,1.17a5.15,5.15,0,0,0,.93,2.59,5,5,0,0,0,2.17,1.69c.67.28,1.12.32,1.12.36a1,1,0,0,1-.32,0,4,4,0,0,1-.85-.21,4.86,4.86,0,0,1-2.28-1.71,5,5,0,0,1-.91-2.7,4.62,4.62,0,0,1,.07-.86A.88.88,0,0,1,685.38,341.29Z" style="fill: rgb(38, 50, 56); transform-origin: 687.42px 344.201px;" id="elcyoa0v5dryv" class="animable"></path><path d="M678.74,342.62a27.92,27.92,0,0,1,3.25,0,27.58,27.58,0,0,1,3.24.21,28,28,0,0,1-3.25,0A27.58,27.58,0,0,1,678.74,342.62Z" style="fill: rgb(38, 50, 56); transform-origin: 681.985px 342.725px;" id="ell12lk6le3d" class="animable"></path><path d="M688,349a8.61,8.61,0,0,1,.13,2.31,8.86,8.86,0,0,1-.3,2.3s.06-1,.11-2.3S688,349,688,349Z" style="fill: rgb(38, 50, 56); transform-origin: 687.993px 351.305px;" id="elz3iqd04j29s" class="animable"></path><path d="M688.18,346s.22.09.45.21.44.18.43.23-.25.07-.52-.06S688.14,346,688.18,346Z" style="fill: rgb(38, 50, 56); transform-origin: 688.617px 346.239px;" id="el9oss2yco8jp" class="animable"></path><path d="M686.79,344.71s.19.08.35.25.26.34.22.37-.2-.07-.36-.24S686.75,344.75,686.79,344.71Z" style="fill: rgb(38, 50, 56); transform-origin: 687.075px 345.023px;" id="el647jej1i8zs" class="animable"></path><path d="M686.2,343s0,.23.11.46.19.41.15.45-.25-.1-.33-.4S686.15,343,686.2,343Z" style="fill: rgb(38, 50, 56); transform-origin: 686.285px 343.458px;" id="el9qvhx0uq2w6" class="animable"></path><path d="M685.94,341.81s.13.08.17.21,0,.26,0,.27-.12-.07-.17-.21S685.89,341.83,685.94,341.81Z" style="fill: rgb(38, 50, 56); transform-origin: 686.015px 342.05px;" id="elsbfuvj6t5rm" class="animable"></path><path d="M626.81,436.74,621.7,430l12.51-9.65,7.58,9.75-.74.64c-3.3,2.86-17,14.28-19.85,15.36C618,447.33,626.81,436.74,626.81,436.74Z" style="fill: #CE78D5; transform-origin: 631.145px 433.275px;" id="elqzl4mx9ua2l" class="animable"></path><g id="el59x9hd111sg"><g style="opacity: 0.5; transform-origin: 639.094px 429.985px;" class="animable" id="ele3iakria1n"><path d="M637.18,433.52a5.45,5.45,0,0,1-.46-3.9,5.31,5.31,0,0,1,2.22-3.17l2.7,3.5Z" style="fill: rgb(255, 255, 255); transform-origin: 639.094px 429.985px;" id="elq8gpdiqj0em" class="animable"></path></g></g><g id="el0b2l3uehlrt9"><g style="opacity: 0.4; transform-origin: 631.118px 438.077px;" class="animable" id="elr7yxqt92zhk"><path d="M622.66,442.1s-2.9,3.95-2,4.2,15.22-10.77,21.09-16.18l-.24-.27-16.54,13S623.41,441.57,622.66,442.1Z" style="fill: rgb(255, 255, 255); transform-origin: 631.118px 438.077px;" id="elpvimtqsuz2" class="animable"></path></g></g><path d="M641.74,429.69s-.06.07-.19.19l-.59.52-2.2,1.85c-1.87,1.55-4.47,3.66-7.4,5.93s-5.63,4.25-7.6,5.67l-2.35,1.66-.65.44c-.14.1-.22.15-.23.14l.21-.17.63-.47,2.31-1.71c2-1.44,4.63-3.45,7.56-5.72s5.55-4.35,7.43-5.88l2.24-1.8.61-.49Z" style="fill: rgb(38, 50, 56); transform-origin: 631.135px 437.891px;" id="el08fzaes69s8g" class="animable"></path><path d="M625.16,443.05a6.23,6.23,0,0,0-1.26-.76,6.3,6.3,0,0,0-1.45-.27,2,2,0,0,1,1.51.09A2.14,2.14,0,0,1,625.16,443.05Z" style="fill: rgb(38, 50, 56); transform-origin: 623.805px 442.482px;" id="elxvrat99z44" class="animable"></path><path d="M627.4,438.32a1.56,1.56,0,0,1-.76-.17c-.41-.15-.72-.31-.7-.36a1.62,1.62,0,0,1,.76.18C627.11,438.12,627.42,438.27,627.4,438.32Z" style="fill: rgb(38, 50, 56); transform-origin: 626.67px 438.055px;" id="el2iapysbyr57" class="animable"></path><path d="M628,437c0,.05-.3.07-.66,0s-.66-.09-.66-.14.3-.08.67-.05S628,437,628,437Z" style="fill: rgb(38, 50, 56); transform-origin: 627.34px 436.922px;" id="elwxj54tphxng" class="animable"></path><path d="M627.73,435.33s-.23.31-.59.59-.67.48-.7.44.23-.31.59-.59S627.7,435.29,627.73,435.33Z" style="fill: rgb(38, 50, 56); transform-origin: 627.084px 435.845px;" id="elwsvo51j5jlh" class="animable"></path><path d="M627.31,434.33a1.61,1.61,0,0,1-.57.77c-.39.36-.8.53-.82.48s.32-.28.7-.62S627.26,434.3,627.31,434.33Z" style="fill: rgb(38, 50, 56); transform-origin: 626.615px 434.958px;" id="el8wk3ez8hm3h" class="animable"></path><path d="M626.14,437.56a3.13,3.13,0,0,1-.81.62,6.75,6.75,0,0,1-1,.47,2.93,2.93,0,0,1-.65.17.53.53,0,0,1-.39-.09.42.42,0,0,1-.12-.42,1.89,1.89,0,0,1,2.83-.64.62.62,0,0,1,.19.2,3.06,3.06,0,0,0-.9-.4,1.87,1.87,0,0,0-1,.08,1.61,1.61,0,0,0-.91.81c-.05.19.11.3.32.28a3.13,3.13,0,0,0,.6-.16,6.85,6.85,0,0,0,1-.42C625.81,437.77,626.12,437.54,626.14,437.56Z" style="fill: rgb(38, 50, 56); transform-origin: 624.672px 438.054px;" id="elojjge1vf9n" class="animable"></path><path d="M626,437.76s-.28-.09-.52-.49a1.62,1.62,0,0,1-.24-.75,1,1,0,0,1,.36-.93.4.4,0,0,1,.53.18,1.21,1.21,0,0,1,.14.47,2.9,2.9,0,0,1,0,.78,1.65,1.65,0,0,1-.21.68s.05-.27.07-.7a3.87,3.87,0,0,0,0-.74c0-.25-.19-.62-.42-.5a.94.94,0,0,0-.26.75,1.64,1.64,0,0,0,.18.7A4.14,4.14,0,0,0,626,437.76Z" style="fill: rgb(38, 50, 56); transform-origin: 625.762px 436.655px;" id="el59vthzeapr" class="animable"></path><path d="M638.85,426.47s-.39.24-.9.74a5.16,5.16,0,0,0-1.38,2.39,5,5,0,0,0,.12,2.75c.22.69.48,1.06.45,1.08s-.08-.08-.2-.25a4.37,4.37,0,0,1-.38-.78,4.81,4.81,0,0,1,1.3-5.29,4.09,4.09,0,0,1,.7-.51A.86.86,0,0,1,638.85,426.47Z" style="fill: rgb(38, 50, 56); transform-origin: 637.55px 429.951px;" id="elwa080uuywch" class="animable"></path><path d="M633.53,422.26a59.34,59.34,0,0,1,4,5.09,25.64,25.64,0,0,1-2.1-2.48A27.73,27.73,0,0,1,633.53,422.26Z" style="fill: rgb(38, 50, 56); transform-origin: 635.53px 424.805px;" id="eluw9lkxqnlt" class="animable"></path><path d="M634.66,433.51A8.64,8.64,0,0,1,633,435.1a8.73,8.73,0,0,1-1.94,1.27c0-.05.83-.63,1.83-1.42S634.62,433.47,634.66,433.51Z" style="fill: rgb(38, 50, 56); transform-origin: 632.86px 434.939px;" id="eljiwjekqyva" class="animable"></path><path d="M637.11,431.62s.07.22.13.47.14.46.1.49-.22-.15-.29-.44S637.06,431.61,637.11,431.62Z" style="fill: rgb(38, 50, 56); transform-origin: 637.187px 432.101px;" id="el2ocivwp2a4u" class="animable"></path><path d="M637.15,429.75c.05,0,.07.2,0,.43s-.09.42-.15.41-.07-.2,0-.43S637.09,429.75,637.15,429.75Z" style="fill: rgb(38, 50, 56); transform-origin: 637.073px 430.17px;" id="elncwxn02naz" class="animable"></path><path d="M638.06,428.21c0,.05-.14.17-.28.38s-.19.41-.24.4-.08-.25.09-.51S638,428.16,638.06,428.21Z" style="fill: rgb(38, 50, 56); transform-origin: 637.78px 428.592px;" id="elj8pq7it8lo7" class="animable"></path><path d="M638.81,427.23c.05,0,0,.15,0,.27s-.17.2-.21.17,0-.15.05-.27S638.77,427.21,638.81,427.23Z" style="fill: rgb(38, 50, 56); transform-origin: 638.708px 427.451px;" id="elft3qy6om5j4" class="animable"></path><path d="M554.81,238.31l-12.37-15.72S522.17,238.17,519.89,237c-12.61-6.73-22.74-19-26.18-23.54-.12-.8-.23-1.75-.32-2.88a8.41,8.41,0,0,1,.29-2.87A13.24,13.24,0,0,1,495,204.3c.63-.91-.17-2.12-1.12-1.79s-2.76,2.79-3.39,6.31-3.35-1.4-4.37-3.18-4.45-7.1-5.25-7.22c-1.16-.17-1.56,1-.5,2.79s3.89,7.21,2.93,7.7-6-8.6-6-8.6-.77-2.12-1.9-1.59c-2,1,4.08,10.24,4.68,11.11.42.6-.6,1.18-1,.51s-4.87-9.2-6.95-8.23c-1.6.74,5,7.67,4.91,9.95s-4.45-5.77-5.95-5c-.56.29-.94.58,2.25,4.83a104.69,104.69,0,0,0,7.75,8.5l-.05,0s29.46,46.08,50.28,34C553.32,241.62,554.81,238.31,554.81,238.31Z" style="fill: rgb(235, 153, 110); transform-origin: 512.762px 227.406px;" id="ellddn3yjc4ks" class="animable"></path><path d="M436.35,199.07,516.08,249s13.2-13.4,13.88-46.54Z" style="fill: rgb(69, 90, 100); transform-origin: 483.155px 224.035px;" id="el0wqp8hs4tcj9" class="animable"></path><path d="M554.79,287.34s46.08,67,50,68.64,77.76,6.32,77.76,6.32l1.24-27.9s-64.19-5.69-64.93-7-41.69-70.07-41.69-70.07Z" style="fill: rgb(38, 50, 56); transform-origin: 619.29px 309.815px;" id="eltdzexp2nclr" class="animable"></path><path d="M679,333.41c.15,0-.18,6.3-.72,14.06s-1.1,14-1.25,14,.18-6.31.73-14.07S678.84,333.39,679,333.41Z" style="fill: rgb(69, 90, 100); transform-origin: 678.015px 347.44px;" id="el2jhk30lbkos" class="animable"></path><path d="M619.16,327.61a37.48,37.48,0,0,1-5.6,6.79,18.08,18.08,0,0,1,2.6-3.56A18.46,18.46,0,0,1,619.16,327.61Z" style="fill: rgb(69, 90, 100); transform-origin: 616.36px 331.005px;" id="elzxayphq4h1" class="animable"></path><path d="M618.84,328.09a16.43,16.43,0,0,1-.71,4.12,17.11,17.11,0,0,1-1.21,4,33.91,33.91,0,0,1,1.92-8.13Z" style="fill: rgb(69, 90, 100); transform-origin: 617.88px 332.145px;" id="elahgshg080g" class="animable"></path><path d="M631.84,338.87a1.33,1.33,0,1,0,.49-.16" style="fill: rgb(69, 90, 100); transform-origin: 632.49px 340.03px;" id="elz0obmioixgb" class="animable"></path><path d="M594.69,311.51a1.32,1.32,0,1,0,.49-.17" style="fill: rgb(69, 90, 100); transform-origin: 595.359px 312.648px;" id="el8ge9uuzencg" class="animable"></path><path d="M641.51,350.71a1.32,1.32,0,1,0,.49-.17" style="fill: rgb(69, 90, 100); transform-origin: 642.179px 351.848px;" id="el0jvzts4lowqo" class="animable"></path><path d="M665.15,354.4a1.33,1.33,0,1,0,.49-.16" style="fill: rgb(69, 90, 100); transform-origin: 665.8px 355.56px;" id="elh41y5pxaest" class="animable"></path><path d="M655.27,339.41a1.33,1.33,0,1,0,1.94,1.5,1.39,1.39,0,0,0-1.45-1.66" style="fill: rgb(69, 90, 100); transform-origin: 655.916px 340.572px;" id="elx9aqn54a9a" class="animable"></path><path d="M604.35,342.25a1.33,1.33,0,1,0,.5-.16" style="fill: rgb(69, 90, 100); transform-origin: 604.997px 343.412px;" id="elyy3b9vtfv" class="animable"></path><path d="M671.6,341.86a1.32,1.32,0,1,0,.49-.17" style="fill: rgb(69, 90, 100); transform-origin: 672.269px 342.998px;" id="ellzc5tseya3" class="animable"></path><path d="M619.86,347.67a1.32,1.32,0,1,0,.49-.17" style="fill: rgb(69, 90, 100); transform-origin: 620.529px 348.808px;" id="el8bjlxen6rav" class="animable"></path><path d="M608.61,321.82a1.33,1.33,0,1,0,.5-.17" style="fill: rgb(69, 90, 100); transform-origin: 609.28px 322.969px;" id="elbwxzzny0rzl" class="animable"></path><path d="M586.17,272.46l1.92,2.36c5.23,6.45,6.89,16.22,6.52,24.72a7.86,7.86,0,0,1-1,3.55L591,307.72l3.1,47.16a16.93,16.93,0,0,0,3.66,10.51l44,55.61-19.4,16.27S565.57,371.62,564,368.5l-10.75-82.95Z" style="fill: rgb(38, 50, 56); transform-origin: 597.505px 354.865px;" id="elw1t39hu8vt" class="animable"></path><path d="M572.31,282.71c.09,0,.32.84,1.07,2.06a9.65,9.65,0,0,0,8.65,4.69,12.61,12.61,0,0,0,2.71-.41h0c.18,0,.27,0,.27,0s-.08.05-.26.08h0a7.66,7.66,0,0,1-2.72.69,9.27,9.27,0,0,1-9-4.91A5.16,5.16,0,0,1,572.31,282.71Z" style="fill: rgb(69, 90, 100); transform-origin: 578.66px 286.282px;" id="eli6kdu92n7js" class="animable"></path><path d="M591.25,281.11a3.46,3.46,0,0,1,.44.65c.27.45.67,1.1,1.15,2a31.58,31.58,0,0,1,3.23,7.7,14.7,14.7,0,0,1,.3,5.79,20,20,0,0,1-2.44,6.17,22.34,22.34,0,0,0-1.41,3.24,17.38,17.38,0,0,0-.76,3.58,44,44,0,0,0,0,7.78c.7,10.69,1.33,20.37,1.79,27.44.21,3.47.37,6.3.49,8.32,0,.94.08,1.69.1,2.26a4,4,0,0,1,0,.79,6.25,6.25,0,0,1-.1-.78c-.05-.57-.12-1.32-.2-2.26-.16-2-.38-4.84-.65-8.31-.5-7.06-1.19-16.73-2-27.42a44.08,44.08,0,0,1,0-7.87,18.62,18.62,0,0,1,.79-3.69,22.46,22.46,0,0,1,1.47-3.3,19.79,19.79,0,0,0,2.43-6,14.2,14.2,0,0,0-.23-5.63,33.73,33.73,0,0,0-3.05-7.68l-1.06-2A7.57,7.57,0,0,1,591.25,281.11Z" style="fill: rgb(69, 90, 100); transform-origin: 593.771px 318.97px;" id="el9cunt6uiiks" class="animable"></path><path d="M596.76,361.55c0,.16-2.52.32-5.51,1.12s-5.27,1.91-5.34,1.77a14.69,14.69,0,0,1,5.21-2.27A14.49,14.49,0,0,1,596.76,361.55Z" style="fill: rgb(69, 90, 100); transform-origin: 591.335px 362.973px;" id="elf0rpzodtb1k" class="animable"></path><path d="M639.15,417.49a3.88,3.88,0,0,1-.71.7c-.48.43-1.19,1-2.07,1.75-1.78,1.45-4.29,3.38-7.14,5.4s-5.52,3.73-7.48,4.92c-1,.6-1.78,1.06-2.34,1.37a3.1,3.1,0,0,1-.9.43,32,32,0,0,1,3-2.11c1.91-1.26,4.53-3,7.38-5s5.38-3.9,7.21-5.27A29.07,29.07,0,0,1,639.15,417.49Z" style="fill: rgb(69, 90, 100); transform-origin: 628.83px 424.775px;" id="elyczgiabjgw" class="animable"></path><path d="M567.89,313.18a1.33,1.33,0,1,0,.5-.17" style="fill: rgb(69, 90, 100); transform-origin: 568.56px 314.329px;" id="elebmlwk7k5jj" class="animable"></path><path d="M581.42,324a1.32,1.32,0,1,0,.49-.17" style="fill: rgb(69, 90, 100); transform-origin: 582.089px 325.138px;" id="el4gtr71v21wz" class="animable"></path><path d="M570.75,357.78a1.32,1.32,0,1,0,.49-.17" style="fill: rgb(69, 90, 100); transform-origin: 571.419px 358.918px;" id="elqiz0groffin" class="animable"></path><path d="M577.83,375a1.34,1.34,0,1,0,.5-.16" style="fill: rgb(69, 90, 100); transform-origin: 578.48px 376.171px;" id="el7g2gympu135" class="animable"></path><path d="M594.05,392.16a1.33,1.33,0,1,0,1.94,1.5,1.4,1.4,0,0,0-1.45-1.67" style="fill: rgb(69, 90, 100); transform-origin: 594.696px 393.318px;" id="eln04yjoi058" class="animable"></path><path d="M606.7,390.49a1.34,1.34,0,1,0,.5-.16" style="fill: rgb(69, 90, 100); transform-origin: 607.351px 391.661px;" id="elzv8m4f16eac" class="animable"></path><path d="M618.88,417.69a1.33,1.33,0,1,0,1.94,1.5,1.4,1.4,0,0,0-1.45-1.67" style="fill: rgb(69, 90, 100); transform-origin: 619.526px 418.848px;" id="elsql5zzmems" class="animable"></path><path d="M619.51,404.61a1.33,1.33,0,1,0,.5-.17" style="fill: rgb(69, 90, 100); transform-origin: 620.18px 405.759px;" id="elkxuquzrbq1" class="animable"></path><path d="M577.26,341.44a1.32,1.32,0,1,0,.49-.17" style="fill: rgb(69, 90, 100); transform-origin: 577.929px 342.578px;" id="el0leay6fel32" class="animable"></path><path d="M594.16,372.61a1.32,1.32,0,1,0,.49-.17" style="fill: rgb(69, 90, 100); transform-origin: 594.829px 373.748px;" id="el38zcp9tsex3" class="animable"></path><path d="M605.88,404.56a1.33,1.33,0,1,0,.49-.16" style="fill: rgb(69, 90, 100); transform-origin: 606.53px 405.72px;" id="elzzs9gy997vs" class="animable"></path><path d="M564.83,333.32a1.32,1.32,0,1,0,.49-.17" style="fill: rgb(69, 90, 100); transform-origin: 565.499px 334.458px;" id="elus2zjzwjkob" class="animable"></path><path d="M560.54,299.43a1.33,1.33,0,1,0,.49-.16" style="fill: rgb(69, 90, 100); transform-origin: 561.19px 300.59px;" id="elwkb35bljuhj" class="animable"></path><path d="M579.51,304.23a1.32,1.32,0,1,0,.49-.17" style="fill: rgb(69, 90, 100); transform-origin: 580.179px 305.368px;" id="eltfm21thcyz" class="animable"></path><path d="M574.6,212.11a17,17,0,0,1,13,4.82h0c7.87,9,1.32,20.58-1.9,30.39l-2.44,7.42c-1.62,6.3,8.08,15.66,11.54,25.95l-42.46,9.39-4.18-24.78-5.64-17.63-7,4.46-14.74-17.36,13.88-10.88a39.18,39.18,0,0,1,24.66-10.8" style="fill: rgb(69, 90, 100); transform-origin: 557.79px 251.077px;" id="el9znnt5yte3a" class="animable"></path><path d="M547,233.32c0,.09-.93.4-2.2,1.36a9.42,9.42,0,0,0-3.22,11c.55,1.49,1.2,2.28,1.12,2.33s-.21-.15-.49-.51a8.09,8.09,0,0,1-1-1.68,9.27,9.27,0,0,1,3.35-11.45,7.7,7.7,0,0,1,1.73-.89C546.76,233.33,547,233.29,547,233.32Z" style="fill: rgb(38, 50, 56); transform-origin: 543.713px 240.664px;" id="elvzojqk2wly" class="animable"></path><path d="M558,213a11.15,11.15,0,0,0,1,4.05,8.93,8.93,0,0,0,2.92,3.37,8.62,8.62,0,0,0,10.22-.56,8.93,8.93,0,0,0,2.53-3.66,11.44,11.44,0,0,0,.57-4.14,1.09,1.09,0,0,1,.08.29,5.34,5.34,0,0,1,.12.85,8.51,8.51,0,0,1-.42,3.12,9.06,9.06,0,0,1-2.57,3.91,8.95,8.95,0,0,1-10.81.58,9,9,0,0,1-3-3.6,8.47,8.47,0,0,1-.76-3.06,6.87,6.87,0,0,1,0-.85Q558,213,558,213Z" style="fill: rgb(38, 50, 56); transform-origin: 566.659px 217.206px;" id="elh5nkf0l7za" class="animable"></path><path d="M501,225.37c0-2-6-7.94-4.66-8.68,1.79-1,6,6.45,6.38,7s1.27,0,.88-.5c-.56-.75-6.26-8.76-4.51-9.72,1-.53,1.72,1.33,1.72,1.33s4.79,7.9,5.6,7.42-1.83-5.23-2.84-6.76-.69-2.62.33-2.52c.7.07,3.89,4.68,4.85,6.22s3.53,5.81,3.95,2.64c0-.05,0-.1,0-.15.33-3.13,1.62-5.44,2.45-5.86a1.19,1.19,0,0,1,1.3,1.76l-.1.21a15.59,15.59,0,0,0-.69,3.16,8.44,8.44,0,0,0,.1,2.88c.23,1.1.47,2,.69,2.82,4,4,15.68,14.86,29.07,19.86,2.42.9,25.74-17.07,25.74-17.07l9.2,16.45c-2.49,2.36-9.72,7.42-21.39,16.44-19,14.72-53-28.58-53-28.58h0l-.34-.31a104.31,104.31,0,0,1-7.95-8c-2.94-3.66-2.62-3.94-2.15-4.22C496.87,220.42,501,227.41,501,225.37Z" style="fill: rgb(255, 190, 157); transform-origin: 537.892px 239.143px;" id="elr7jm3i16b" class="animable"></path><path d="M549.34,243.27a27.23,27.23,0,0,1,2.8-2.22l6.83-5.2,6.76-5.31a26.24,26.24,0,0,1,2.85-2.15,3.87,3.87,0,0,1-.67.7c-.45.42-1.11,1-1.94,1.73-1.67,1.45-4,3.38-6.68,5.44s-5.12,3.84-6.94,5.09c-.91.63-1.65,1.12-2.17,1.45A3.43,3.43,0,0,1,549.34,243.27Z" style="fill: rgb(38, 50, 56); transform-origin: 558.96px 235.83px;" id="elpiirftk556" class="animable"></path><path d="M586.64,217s8.34,8.35-2.12,24.2a74.29,74.29,0,0,1-25.08,23.33L548.78,244a126.16,126.16,0,0,0,25-17.87L586.61,217Z" style="fill: rgb(69, 90, 100); transform-origin: 569.285px 240.765px;" id="eltlz3an6nc7d" class="animable"></path><path d="M548.61,243.58a25.82,25.82,0,0,1,1.6,3c.94,1.86,2.28,4.43,3.84,7.21s3.05,5.25,4.15,7a24.57,24.57,0,0,1,1.72,2.93s-.24-.23-.59-.7-.85-1.16-1.44-2c-1.18-1.73-2.73-4.18-4.3-7s-2.85-5.39-3.72-7.3c-.43-1-.76-1.74-1-2.29A2.78,2.78,0,0,1,548.61,243.58Z" style="fill: rgb(38, 50, 56); transform-origin: 554.265px 253.65px;" id="elh8qfyuvdqst" class="animable"></path><path d="M577.07,251.6c.08.12-3.5,3-8,6.47a100.59,100.59,0,0,1-8.31,6.05,101.15,101.15,0,0,1,8-6.46C573.26,254.2,577,251.49,577.07,251.6Z" style="fill: rgb(38, 50, 56); transform-origin: 568.916px 257.858px;" id="elpida11byj5" class="animable"></path><path d="M575.28,213.69l0-26.43a15.87,15.87,0,0,0-6.86-13l-1.9-1.3a5.18,5.18,0,0,0-5-.27l-3.73,1.78a10.07,10.07,0,0,0-5.71,8.84c-.1,4.83-.19,11.33,0,15,.34,6.42,6.81,7.16,6.81,7.16s-.23,3.54-.46,7.26a8.46,8.46,0,0,0,7.78,8.95h0A8.46,8.46,0,0,0,575.28,213.69Z" style="fill: rgb(255, 190, 157); transform-origin: 563.624px 196.938px;" id="el47k4i2w4p4y" class="animable"></path><path d="M553.41,187.9a.83.83,0,0,0,1.65,0,.83.83,0,1,0-1.65,0Z" style="fill: rgb(38, 50, 56); transform-origin: 554.235px 187.809px;" id="elrvgsvrdtb" class="animable"></path><path d="M552.62,187c.11.11.72-.4,1.61-.44s1.54.39,1.63.27-.06-.25-.35-.45a2.13,2.13,0,0,0-1.31-.35,2.15,2.15,0,0,0-1.27.49C552.66,186.74,552.57,187,552.62,187Z" style="fill: rgb(38, 50, 56); transform-origin: 554.246px 186.521px;" id="el2cxsbd28vv6" class="animable"></path><path d="M562.93,188a.83.83,0,1,0,.83-.81A.83.83,0,0,0,562.93,188Z" style="fill: rgb(38, 50, 56); transform-origin: 563.76px 188.02px;" id="eln4ocmwkt09j" class="animable"></path><path d="M562.43,187.07c.11.11.72-.4,1.6-.44s1.55.39,1.64.27-.06-.25-.35-.45a2.18,2.18,0,0,0-1.32-.36,2.16,2.16,0,0,0-1.27.5C562.47,186.82,562.38,187,562.43,187.07Z" style="fill: rgb(38, 50, 56); transform-origin: 564.056px 186.586px;" id="elg33z99xtra8" class="animable"></path><path d="M558.85,205.48a16,16,0,0,0,8.53-2.81s-2,4.7-8.4,4.38Z" style="fill: rgb(235, 153, 110); transform-origin: 563.115px 204.868px;" id="eltnrhdtmjush" class="animable"></path><path d="M559.18,194.52a5.82,5.82,0,0,0-1.45-.19c-.22,0-.44-.05-.49-.22a1.26,1.26,0,0,1,.13-.71c.2-.58.41-1.19.62-1.83.43-1.3.81-2.48,1.06-3.35a5.53,5.53,0,0,0,.33-1.42,6.66,6.66,0,0,0-.57,1.34c-.31.85-.72,2-1.15,3.32l-.6,1.84a1.36,1.36,0,0,0-.09.92.53.53,0,0,0,.37.32,1.33,1.33,0,0,0,.38,0A5.82,5.82,0,0,0,559.18,194.52Z" style="fill: rgb(38, 50, 56); transform-origin: 558.154px 190.688px;" id="el6yr992rif0l" class="animable"></path><path d="M569.63,172.19c4.11,2.14,6.7,4.46,9.58,4.89a77.19,77.19,0,0,0,8.74.28c2.92.1,5.95.61,8.3,2.35s3.77,5,2.67,7.68a12.14,12.14,0,0,1,10,5.23,9.46,9.46,0,0,1-.46,11c-1.22,1.43-2.91,2.42-4,3.93-.73,1-1.18,2.12-1.89,3.1a7.61,7.61,0,0,1-9,2.47c-3.49-1.53-5.65-5.66-9.42-6.23-2-.31-4,.51-6.08.36-3.17-.25-5.75-2.86-6.92-5.82S570,195.19,570,192" style="fill: rgb(38, 50, 56); transform-origin: 590.047px 192.944px;" id="el2lvpm82lfg4" class="animable"></path><path d="M553.21,175.49a10.41,10.41,0,0,0-1.1,12.54,22.25,22.25,0,0,0,3-6.21,7.84,7.84,0,0,0-1-6.61" style="fill: rgb(38, 50, 56); transform-origin: 552.974px 181.62px;" id="elfrg5bjgevwt" class="animable"></path><path d="M553.25,175.44c-.08,4.06,2.9,7.8,6.67,9.34a3.6,3.6,0,0,0,1.7.34,1.53,1.53,0,0,0,1.34-1,1,1,0,0,0-.83-1.27,26,26,0,0,0,4.51,3.07,3.16,3.16,0,0,0,2.43.51c.81-.27,1.24-1.52.52-2,1.18,1.34,2,4.92,3.52,5.91.47.31,1.53-1.78,2.06-2s.84-1,.94-1.73c.35-2.54.68-5.21-.27-7.6a14,14,0,0,0-8.59-7.89c-2.48-.68-5.59-.36-8.13.07A9.5,9.5,0,0,0,553,176" style="fill: rgb(38, 50, 56); transform-origin: 564.731px 180.549px;" id="el642exp3i46a" class="animable"></path><path d="M573.63,188.16a2.16,2.16,0,0,1,2.36-.42,2.69,2.69,0,0,1,1.48,2,3.44,3.44,0,0,1-.56,2.43,2.05,2.05,0,0,1-2,1.07" style="fill: rgb(255, 190, 157); transform-origin: 575.568px 190.404px;" id="elfpzjczda6j" class="animable"></path><path d="M594.34,190.39s.68-.19,1.81-.74a9.9,9.9,0,0,0,4-3.33,7.14,7.14,0,0,0,.5-7.32,5.77,5.77,0,0,0-3.37-2.82,9.88,9.88,0,0,0-4.85-.21c-3.33.6-6.38,2.2-9.5,2.11a22.26,22.26,0,0,1-7.72-2,52.53,52.53,0,0,1-4.86-2.27c-.56-.29-1-.54-1.28-.71s-.43-.26-.42-.28a1.66,1.66,0,0,1,.47.19l1.32.62c1.14.54,2.8,1.29,4.91,2.11a22.42,22.42,0,0,0,7.58,1.87c3,.07,6-1.51,9.41-2.14a10.25,10.25,0,0,1,5.11.24,6.23,6.23,0,0,1,3.62,3.07,7.52,7.52,0,0,1-.61,7.76,9.81,9.81,0,0,1-4.23,3.31,10.24,10.24,0,0,1-1.38.47A1.75,1.75,0,0,1,594.34,190.39Z" style="fill: rgb(38, 50, 56); transform-origin: 585.26px 181.605px;" id="elaas1sejj1mk" class="animable"></path><path d="M574.79,191.67c0-.08.27-.13.56-.39a1.32,1.32,0,0,0,.43-1.3,1.34,1.34,0,0,0-1.11-.8c-.39,0-.64.08-.68,0s.16-.33.68-.39a1.48,1.48,0,0,1,.9,2.77C575.11,191.83,574.78,191.73,574.79,191.67Z" style="fill: rgb(235, 153, 110); transform-origin: 575.167px 190.258px;" id="elhnc1yi8cgpp" class="animable"></path><path d="M562.74,195.37a1.3,1.3,0,0,0-1.34-.31,1.89,1.89,0,0,0-1.08.67,1.13,1.13,0,0,0-.1,1.22,1.43,1.43,0,0,0,1.29.53,1.89,1.89,0,0,0,1.41-.66,1.17,1.17,0,0,0,0-1.47" style="fill: rgb(235, 153, 110); transform-origin: 561.633px 196.24px;" id="elha04v141zx8" class="animable"></path><path d="M563.18,194.65c.14,0-.22,1.08-1.29,1.78a2.46,2.46,0,0,1-2.15.49c0-.15.92-.3,1.86-.93S563.05,194.58,563.18,194.65Z" style="fill: rgb(38, 50, 56); transform-origin: 561.474px 195.818px;" id="elbate4gk9kd9" class="animable"></path><path d="M595.72,172.82s-.4-.15-1.14-.22a6.58,6.58,0,0,0-3.06.49,27.42,27.42,0,0,0-4.11,2.3,11.45,11.45,0,0,1-5.62,1.71,15.77,15.77,0,0,1-5.8-.95,26.79,26.79,0,0,1-4.33-2c-1.18-.68-2.1-1.27-2.73-1.69a4.68,4.68,0,0,1-.94-.7,5.51,5.51,0,0,1,1,.53c.66.36,1.61.91,2.8,1.54,2.35,1.22,5.84,2.91,9.93,2.77a11.05,11.05,0,0,0,5.4-1.61,26.06,26.06,0,0,1,4.22-2.23,6.34,6.34,0,0,1,3.22-.34,3.46,3.46,0,0,1,.85.26C595.64,172.75,595.73,172.8,595.72,172.82Z" style="fill: rgb(38, 50, 56); transform-origin: 581.855px 174.433px;" id="el4pj90txzw6t" class="animable"></path></g><g id="freepik--character-1--inject-14" class="animable" style="transform-origin: 206.23px 211.204px;"><path d="M294.13,122.41s15-9.4,18.47-6.56a21.78,21.78,0,0,1,5.44,7.49l-16.13,6.41Z" style="fill: rgb(255, 190, 157); transform-origin: 306.085px 122.533px;" id="elhbgm7vnc6p4" class="animable"></path><polygon points="231.27 131.23 265.06 135.45 296.54 118.17 304.31 129.42 264.89 154.81 224.85 149.79 231.27 131.23" style="fill: #CE78D5; transform-origin: 264.58px 136.49px;" id="elszv1chz0yee" class="animable"></polygon><g id="elx1w8dl1j8v"><g style="opacity: 0.3; transform-origin: 264.58px 136.49px;" class="animable" id="elrezxsy8ii7"><polygon points="231.27 131.23 265.06 135.45 296.54 118.17 304.31 129.42 264.89 154.81 224.85 149.79 231.27 131.23" id="eloz6h9tw3tmh" class="animable" style="transform-origin: 264.58px 136.49px;"></polygon></g></g><path d="M264.42,174s-6-85.92,73-95.7l13,87Z" style="fill: rgb(38, 50, 56); transform-origin: 307.368px 126.15px;" id="elu8thguv3lcc" class="animable"></path><path d="M90.79,332.77l7.74-3.35-6.17-14.54L81,319.65l.32.93c1.48,4.1,7.82,20.78,9.77,23.12C93.24,346.31,90.79,332.77,90.79,332.77Z" style="fill: #CE78D5; transform-origin: 89.765px 329.457px;" id="eliamaatsfel" class="animable"></path><g id="elk8vq742dz4n"><g style="opacity: 0.5; transform-origin: 83.5147px 321.36px;" class="animable" id="eldt302rq7p3"><path d="M83.33,324.87a5.42,5.42,0,0,0,2.31-3.17,5.3,5.3,0,0,0-.38-3.85l-4.07,1.73Z" style="fill: rgb(255, 255, 255); transform-origin: 83.5147px 321.36px;" id="ely26gxwbosp" class="animable"></path></g></g><g id="el72u6ytg4z1b"><g style="opacity: 0.4; transform-origin: 86.4664px 331.819px;" class="animable" id="eldvno45nctjf"><path d="M91.77,339.48s.59,4.86-.35,4.62-8-16.85-10.44-24.45l.33-.12,8,19.45S91.38,338.64,91.77,339.48Z" style="fill: rgb(255, 255, 255); transform-origin: 86.4664px 331.819px;" id="elxsromg0xh98" class="animable"></path></g></g><path d="M81.23,319.3a1.32,1.32,0,0,0,.07.26c.08.22.17.47.26.74.28.73.61,1.63,1,2.69.87,2.27,2.1,5.39,3.54,8.8s2.82,6.47,3.84,8.67l1.23,2.6.35.7c.08.16.13.24.13.24a1.23,1.23,0,0,0-.1-.25l-.31-.72-1.17-2.62c-1-2.22-2.35-5.28-3.79-8.69s-2.7-6.52-3.59-8.78l-1.07-2.67c-.1-.26-.2-.5-.29-.72Z" style="fill: rgb(38, 50, 56); transform-origin: 86.44px 331.65px;" id="elfixvcrbptk4" class="animable"></path><path d="M89.13,339.07a6.58,6.58,0,0,1,1.47,0,6.45,6.45,0,0,1,1.39.48,2.53,2.53,0,0,0-2.86-.44Z" style="fill: rgb(38, 50, 56); transform-origin: 90.56px 339.201px;" id="elc4vqk4b1gh" class="animable"></path><path d="M89.49,333.86c0,.05.32.15.75.22s.77.09.78,0a1.7,1.7,0,0,0-.75-.22A1.66,1.66,0,0,0,89.49,333.86Z" style="fill: rgb(38, 50, 56); transform-origin: 90.255px 333.977px;" id="elsymbmascszg" class="animable"></path><path d="M89.61,332.42s.23.21.56.36.62.25.64.2-.23-.21-.56-.37S89.63,332.37,89.61,332.42Z" style="fill: rgb(38, 50, 56); transform-origin: 90.2106px 332.699px;" id="elcxbcij2q0od" class="animable"></path><path d="M90.67,331.09a1.84,1.84,0,0,0,.22.8,2.19,2.19,0,0,0,.4.73,1.84,1.84,0,0,0-.22-.8C90.9,331.4,90.72,331.07,90.67,331.09Z" style="fill: rgb(38, 50, 56); transform-origin: 90.98px 331.855px;" id="elnbnzlrknrwd" class="animable"></path><path d="M91.53,330.42a1.65,1.65,0,0,0,.11,1,1.56,1.56,0,0,0,.49.82,6.64,6.64,0,0,0-.31-.89A5.61,5.61,0,0,0,91.53,330.42Z" style="fill: rgb(38, 50, 56); transform-origin: 91.8135px 331.33px;" id="el45m39t1wusw" class="animable"></path><path d="M91,333.81a2.91,2.91,0,0,0,.41.94,5.26,5.26,0,0,0,.64.9,3.47,3.47,0,0,0,.47.47.55.55,0,0,0,.39.11.41.41,0,0,0,.32-.3A1.88,1.88,0,0,0,91,334a.64.64,0,0,0-.26.08,3,3,0,0,1,1,.09,1.81,1.81,0,0,1,.85.58,1.56,1.56,0,0,1,.4,1.15c0,.19-.25.21-.41.08a2.61,2.61,0,0,1-.45-.43,8,8,0,0,1-.66-.85C91.14,334.16,91,333.8,91,333.81Z" style="fill: rgb(38, 50, 56); transform-origin: 91.9859px 335.021px;" id="elt3yi4ggdmx" class="animable"></path><path d="M91,334.08a1.1,1.1,0,0,0,.7-.17,1.73,1.73,0,0,0,.57-.55,1,1,0,0,0,.15-1,.41.41,0,0,0-.56-.1,1.39,1.39,0,0,0-.35.33,3.72,3.72,0,0,0-.38.69A1.49,1.49,0,0,0,91,334s.09-.26.28-.64a3.5,3.5,0,0,1,.39-.63c.15-.21.46-.45.61-.23a.9.9,0,0,1-.14.78,1.56,1.56,0,0,1-.5.52A4.36,4.36,0,0,1,91,334.08Z" style="fill: rgb(38, 50, 56); transform-origin: 91.7441px 333.138px;" id="eln906yuqdjr9" class="animable"></path><path d="M85.33,317.91s.22.4.42,1.09a4.94,4.94,0,0,1-1.42,5.1,11.08,11.08,0,0,1-.93.72.85.85,0,0,0,.3-.13,3.66,3.66,0,0,0,.71-.49A4.83,4.83,0,0,0,86,321.81a4.88,4.88,0,0,0-.08-2.85,4,4,0,0,0-.36-.79A1.4,1.4,0,0,0,85.33,317.91Z" style="fill: rgb(38, 50, 56); transform-origin: 84.7874px 321.365px;" id="elxj3nk2w7vwa" class="animable"></path><path d="M92,316.86A26.78,26.78,0,0,0,89,318a28.68,28.68,0,0,0-3,1.31,26.78,26.78,0,0,0,3-1.14A26.34,26.34,0,0,0,92,316.86Z" style="fill: rgb(38, 50, 56); transform-origin: 89px 318.085px;" id="elm9femx7stm9" class="animable"></path><path d="M85.52,326.1a9.46,9.46,0,0,0,.69,2.22,8.93,8.93,0,0,0,1.07,2.05s-.41-.95-.89-2.12S85.58,326.09,85.52,326.1Z" style="fill: rgb(38, 50, 56); transform-origin: 86.4px 328.235px;" id="ely9ungi4o2k" class="animable"></path><path d="M84.32,323.25s-.17.16-.35.35-.34.33-.32.38.26,0,.47-.25S84.37,323.27,84.32,323.25Z" style="fill: rgb(38, 50, 56); transform-origin: 83.9938px 323.624px;" id="elaybktdr16l" class="animable"></path><path d="M85.2,321.61s-.16.14-.25.35-.12.41-.07.43.16-.14.25-.35S85.25,321.63,85.2,321.61Z" style="fill: rgb(38, 50, 56); transform-origin: 85.04px 322.001px;" id="el9zpt03zoce5" class="animable"></path><path d="M85.16,319.81s0,.23.06.47,0,.45,0,.47.2-.18.18-.48S85.2,319.78,85.16,319.81Z" style="fill: rgb(38, 50, 56); transform-origin: 85.2807px 320.279px;" id="eliunw4r4sqwb" class="animable"></path><path d="M85,318.6c-.06,0-.1.11-.09.25s0,.26.1.26.09-.12.09-.26S85,318.6,85,318.6Z" style="fill: rgb(38, 50, 56); transform-origin: 85.0044px 318.855px;" id="el0toi4zyu1tu9" class="animable"></path><path d="M66.66,270.36l8.43-.36-.56-15.79-12.34.39,0,1c-.09,4.36-.14,22.2.84,25.09C64.11,283.88,66.66,270.36,66.66,270.36Z" style="fill: #CE78D5; transform-origin: 68.6177px 267.694px;" id="el0c4x8pm8tbj" class="animable"></path><g id="el4171gh46qk5"><g style="opacity: 0.6; transform-origin: 64.6313px 257.385px;" class="animable" id="el4oeteca6k8p"><path d="M62.52,260.32a5.49,5.49,0,0,0,3.3-2.14,5.3,5.3,0,0,0,1-3.73l-4.41.16Z" style="fill: rgb(255, 255, 255); transform-origin: 64.6313px 257.385px;" id="elk1385emp2r" class="animable"></path></g></g><g id="elwguj11o8khi"><g style="opacity: 0.6; transform-origin: 63.6097px 267.933px;" class="animable" id="el11p1yddxqt0h"><path d="M65.18,277s-1.19,4.75-2,4.19-1.43-18.59-1-26.56h.36l.55,21S65.11,276.05,65.18,277Z" style="fill: rgb(255, 255, 255); transform-origin: 63.6097px 267.933px;" id="elkeko558ecbk" class="animable"></path></g></g><path d="M62.55,254.36a1.52,1.52,0,0,0,0,.27c0,.24,0,.5,0,.79,0,.78,0,1.74,0,2.87,0,2.43,0,5.78.16,9.48s.31,7.05.48,9.48c.09,1.13.16,2.08.22,2.86,0,.29,0,.55.07.78a1.14,1.14,0,0,0,0,.27.92.92,0,0,0,0-.27c0-.24,0-.49,0-.78,0-.78-.09-1.74-.16-2.87-.13-2.43-.29-5.77-.42-9.47s-.19-7-.22-9.48c0-1.13,0-2.09,0-2.87,0-.29,0-.55,0-.79A1.52,1.52,0,0,0,62.55,254.36Z" style="fill: rgb(38, 50, 56); transform-origin: 63.017px 267.76px;" id="elsv4ya6gga7" class="animable"></path><path d="M62.85,275.65a6.3,6.3,0,0,1,1.39.49,7,7,0,0,1,1.14.94,2.22,2.22,0,0,0-1-1.11A2.15,2.15,0,0,0,62.85,275.65Z" style="fill: rgb(38, 50, 56); transform-origin: 64.115px 276.35px;" id="elxt83sc14ndh" class="animable"></path><path d="M65.06,270.91s.25.26.62.48a1.84,1.84,0,0,0,.72.31c0-.05-.25-.26-.62-.48S65.08,270.86,65.06,270.91Z" style="fill: rgb(38, 50, 56); transform-origin: 65.73px 271.3px;" id="el1c62g7v21n1" class="animable"></path><path d="M65.69,269.61s.13.28.39.54.49.45.53.41-.14-.28-.39-.54S65.73,269.57,65.69,269.61Z" style="fill: rgb(38, 50, 56); transform-origin: 66.1528px 270.085px;" id="elbps52ae9ed" class="animable"></path><path d="M67.15,268.75a1.89,1.89,0,0,0-.08.83,1.87,1.87,0,0,0,.12.82,1.89,1.89,0,0,0,.08-.83A2.05,2.05,0,0,0,67.15,268.75Z" style="fill: rgb(38, 50, 56); transform-origin: 67.17px 269.575px;" id="elq4oispuzmro" class="animable"></path><path d="M68.19,268.43a1.65,1.65,0,0,0-.23.93,1.55,1.55,0,0,0,.16.95,5.41,5.41,0,0,0,0-.94A4.24,4.24,0,0,0,68.19,268.43Z" style="fill: rgb(38, 50, 56); transform-origin: 68.0679px 269.37px;" id="elenyj8gw6eyv" class="animable"></path><path d="M66.45,271.4a3.16,3.16,0,0,0,0,1,6.09,6.09,0,0,0,.28,1.07,2.76,2.76,0,0,0,.28.61.5.5,0,0,0,.32.24.41.41,0,0,0,.4-.16,1.88,1.88,0,0,0-.62-2.29,1.74,1.74,0,0,0-.69-.3.55.55,0,0,0-.28,0,2.84,2.84,0,0,1,.88.43,1.84,1.84,0,0,1,.6.85,1.59,1.59,0,0,1,0,1.21c-.12.17-.31.11-.42-.06a2.94,2.94,0,0,1-.26-.57,6.09,6.09,0,0,1-.31-1C66.5,271.78,66.48,271.4,66.45,271.4Z" style="fill: rgb(38, 50, 56); transform-origin: 67.0161px 272.863px;" id="elh68xg0c0rkc" class="animable"></path><path d="M66.41,271.66a1,1,0,0,0,.71.1,1.75,1.75,0,0,0,.73-.31,1,1,0,0,0,.49-.86.41.41,0,0,0-.48-.3,1.16,1.16,0,0,0-.45.19,3.08,3.08,0,0,0-.59.5,1.73,1.73,0,0,0-.4.6s.18-.21.49-.5a3.35,3.35,0,0,1,.6-.45c.21-.15.59-.25.64,0s-.21.52-.41.68a1.49,1.49,0,0,1-.65.31A3.42,3.42,0,0,1,66.41,271.66Z" style="fill: rgb(38, 50, 56); transform-origin: 67.375px 271.034px;" id="elk3polewfh5e" class="animable"></path><path d="M66.88,254.53s.06.46,0,1.17A5,5,0,0,1,63.73,260a11.2,11.2,0,0,1-1.12.34,1.13,1.13,0,0,0,.32,0,3.77,3.77,0,0,0,.84-.2A4.82,4.82,0,0,0,67,255.71a4,4,0,0,0-.06-.87A.88.88,0,0,0,66.88,254.53Z" style="fill: rgb(38, 50, 56); transform-origin: 64.8066px 257.441px;" id="elvc41fcxvbwc" class="animable"></path><path d="M73.51,255.94a28.94,28.94,0,0,0-3.25,0,25.61,25.61,0,0,0-3.24.17,28.86,28.86,0,0,0,3.25,0A25.61,25.61,0,0,0,73.51,255.94Z" style="fill: rgb(38, 50, 56); transform-origin: 70.265px 256.025px;" id="eltvwb68ydlea" class="animable"></path><path d="M64.13,262.25a9.2,9.2,0,0,0-.15,2.32,8.74,8.74,0,0,0,.27,2.3s0-1-.08-2.31S64.19,262.26,64.13,262.25Z" style="fill: rgb(38, 50, 56); transform-origin: 64.1061px 264.56px;" id="el325w1xxd28p" class="animable"></path><path d="M64,259.16s-.22.09-.45.2-.44.18-.44.24.26.07.52-.07S64.07,259.19,64,259.16Z" style="fill: rgb(38, 50, 56); transform-origin: 63.5626px 259.401px;" id="elw5upp2n6dc" class="animable"></path><path d="M65.44,257.94s-.2.07-.36.24-.26.34-.22.37.2-.07.36-.24S65.48,258,65.44,257.94Z" style="fill: rgb(38, 50, 56); transform-origin: 65.15px 258.248px;" id="elxim865zxtea" class="animable"></path><path d="M66,256.25c-.05,0,0,.22-.11.46s-.2.4-.16.44.25-.1.34-.39S66.09,256.23,66,256.25Z" style="fill: rgb(38, 50, 56); transform-origin: 65.9161px 256.703px;" id="elze1si4622ae" class="animable"></path><path d="M66.31,255.05s-.12.08-.17.21,0,.25,0,.27.13-.08.17-.21S66.36,255.07,66.31,255.05Z" style="fill: rgb(38, 50, 56); transform-origin: 66.2308px 255.291px;" id="elnsg5ucxejek" class="animable"></path><path d="M316.48,144.45a95.82,95.82,0,0,0,9.68-4.28c3.81-2.17,3.63-2.52,3.31-2.93-.85-1.1-6.85,3.56-6.12,1.8s8-4.84,7-5.95c-1.23-1.45-7.42,3.55-8,3.93s-1.11-.42-.59-.74c.74-.46,8.45-5.47,7.26-6.91-.66-.79-1.95.57-1.95.57s-6.88,5.23-7.42,4.53,3.39-3.91,4.79-4.9,1.5-2,.58-2.31c-.64-.18-5,2.74-6.36,3.75s-5.07,3.84-4.34.94.22-5.41-.38-6-1.61.08-1.44,1a11.41,11.41,0,0,1-.18,3,7.33,7.33,0,0,1-.76,2.3c-.34.62-.65,1.16-.94,1.64l-3,5.13,3.83,7.3Z" style="fill: rgb(255, 190, 157); transform-origin: 319.032px 136.024px;" id="eli361leuch1n" class="animable"></path><path d="M193.28,204.7l3.19-6-17.22-14.33s-17,15-18.2,18.14-23.52,48.6-23.52,48.6L68.77,253,68,279.57s66.55-1.67,77.06-2.26c13.77-.79,20.43-20.13,20.43-20.13l1.28-2.42c-.92,7.45-1.8,14.18-2.49,18.21a7.27,7.27,0,0,1-3.71,5.19l-75,35.67,11.3,26.29s87.54-43.07,91.08-52.34c4.38-11.48,25.07-79.5,25.07-79.5Z" style="fill: rgb(38, 50, 56); transform-origin: 140.51px 262.245px;" id="el90igtypf96n" class="animable"></path><path d="M163.68,274.84a3.53,3.53,0,0,1,.23-.72l.75-2v0a121.61,121.61,0,0,1,1.2-12.91c.75-5.66,2-12.41,3.17-19.68.79-4.88,1.47-9.54,1.74-13.8s-.17-8.11,0-11.37a32.12,32.12,0,0,1,.51-4.36,24.43,24.43,0,0,1,.89-3.19,18.13,18.13,0,0,1,.79-1.94,3.44,3.44,0,0,1,.34-.64,6,6,0,0,1-.24.69c-.18.44-.43,1.09-.7,1.95a26.5,26.5,0,0,0-.79,3.19,32.33,32.33,0,0,0-.43,4.32c-.12,3.22.29,7.07.11,11.38s-.92,9-1.7,13.85c-1.2,7.29-2.46,14-3.26,19.66s-1.25,10.14-1.43,12.86v0h0l-.84,2A5.72,5.72,0,0,1,163.68,274.84Z" style="fill: rgb(69, 90, 100); transform-origin: 168.49px 239.535px;" id="elh16kg8st9q4" class="animable"></path><path d="M207.48,219.44a2.22,2.22,0,0,1-.45.73,6.86,6.86,0,0,1-1.73,1.58A8.35,8.35,0,0,1,202,223a8,8,0,0,1-4.25-.47,7.92,7.92,0,0,1-3.31-2.7,8.29,8.29,0,0,1-1.4-3.19,6.66,6.66,0,0,1-.1-2.34,2.45,2.45,0,0,1,.2-.83,12.57,12.57,0,0,0,.26,3.09,8.34,8.34,0,0,0,1.42,3A7.8,7.8,0,0,0,198,222a7.69,7.69,0,0,0,4,.47,8.3,8.3,0,0,0,3.13-1.08A12.28,12.28,0,0,0,207.48,219.44Z" style="fill: rgb(69, 90, 100); transform-origin: 200.18px 218.286px;" id="elt8fnytju4we" class="animable"></path><path d="M169.24,282.63a28,28,0,0,1-2.47-3.46,26,26,0,0,1-2.35-3.54,13.1,13.1,0,0,1,2.78,3.24A12.61,12.61,0,0,1,169.24,282.63Z" style="fill: rgb(69, 90, 100); transform-origin: 166.83px 279.13px;" id="elino1mvgupgs" class="animable"></path><path d="M173.12,280.14c-.1.11-1.87-1.32-4.2-2.87s-4.33-2.63-4.27-2.77a22.62,22.62,0,0,1,8.47,5.64Z" style="fill: rgb(69, 90, 100); transform-origin: 168.884px 277.323px;" id="elepcslnzxkd9" class="animable"></path><path d="M104,336.07c-.13.06-3-5.54-6.47-12.5s-6.13-12.67-6-12.74,3,5.53,6.47,12.51S104.17,336,104,336.07Z" style="fill: rgb(69, 90, 100); transform-origin: 97.7665px 323.45px;" id="elomdlhuprnk" class="animable"></path><path d="M76.77,279.34a3.79,3.79,0,0,1-.07-1v-2.88c0-2.43,0-5.78-.1-9.48s-.13-7.06-.13-9.49c0-1.22,0-2.2,0-2.88a4.77,4.77,0,0,1,.08-1.06,3.82,3.82,0,0,1,.12,1.05l.15,2.88c.1,2.42.22,5.78.28,9.49s0,7.07,0,9.5c0,1.21-.1,2.19-.15,2.87A4.8,4.8,0,0,1,76.77,279.34Z" style="fill: rgb(69, 90, 100); transform-origin: 76.7968px 265.945px;" id="el6i82jyzs2si" class="animable"></path><path d="M225.07,103.79a6,6,0,0,0-2.28-6.25,6,6,0,0,0-6.64-.08,5.88,5.88,0,0,0-2.32,6.21,5.81,5.81,0,0,0,5.12,4.19c2,.12,3.89-.82,5.66-1.74" style="fill: rgb(38, 50, 56); transform-origin: 219.449px 102.184px;" id="el4qcy58cez5d" class="animable"></path><path d="M235.89,98l-17.47,32.72,13.71,8.12,4.63-7.75s4.47,3.63,8.21-.32c2.39-2.53,14.32-25.53,14.32-25.53Z" style="fill: rgb(255, 190, 157); transform-origin: 238.855px 118.42px;" id="el9349tjqg9k" class="animable"></path><path d="M260.75,110.15c-2,1.46-8.39,2.65-8.39,2.65l-4.93,4.38c.29-2.48-4-4.32-5.6-1.17s1.09,4.55,1.09,4.55c-3.1,1.91-5.39,3.56-9.15,4.94-4.07,1.49-5.66,1-8.46-.41l-3.07-1.62s-3.49-8.57,5.06-21.71,18.63-6.14,23.39-4.19C251.59,97.94,267.38,105.29,260.75,110.15Z" style="fill: rgb(38, 50, 56); transform-origin: 241.953px 110.184px;" id="elgl3asvi9u6i" class="animable"></path><path d="M247.43,117.18s-1.4,4.49-3.53,3.9a5.25,5.25,0,0,1-1.89-1.27l-3.94,3.28s-4.43,5.42-1.31,8c2.88,2.38,6.47,3.72,9.51-1.23l2-3.65s-2.87-.78-2.5-2.08,4.46-9.48,4.46-9.48Z" style="fill: rgb(38, 50, 56); transform-origin: 242.938px 123.937px;" id="el8i6skl3ol3" class="animable"></path><path d="M253.55,106.5s.26.19.75.47a4.46,4.46,0,0,0,2.26.6,3.7,3.7,0,0,0,2.94-1.52,3.26,3.26,0,0,0,.66-1.84,3.88,3.88,0,0,0-.51-2.07,6.28,6.28,0,0,0-3.22-2.68,22.59,22.59,0,0,0-3.44-1,10.86,10.86,0,0,1-3.18-1.05,4.18,4.18,0,0,1,.88.19c.56.14,1.37.31,2.38.5a19.08,19.08,0,0,1,3.54,1,6.56,6.56,0,0,1,3.49,2.87,4.37,4.37,0,0,1,.57,2.34,3.73,3.73,0,0,1-.79,2.11,4,4,0,0,1-3.32,1.6,4.24,4.24,0,0,1-2.37-.8C253.71,106.8,253.53,106.52,253.55,106.5Z" style="fill: rgb(38, 50, 56); transform-origin: 255.242px 102.716px;" id="elks5crdya319" class="animable"></path><path d="M224.08,107.26c-.14-.05.09-1,.5-2.11a9.56,9.56,0,0,1,.82-1.77l0,.13c.09,0,0,0,0,0s0,0,0,0,0,0-.07-.05,0-.22.22-.17l.06,0v.12a10.17,10.17,0,0,1-.54,1.87C224.66,106.45,224.21,107.31,224.08,107.26Z" style="fill: #CE78D5; transform-origin: 224.824px 105.271px;" id="elmxzzeaa1ba" class="animable"></path><path d="M245.9,116.9c-.05.06-.31-.09-.74-.16a1.64,1.64,0,0,0-1.47.45,1.21,1.21,0,0,0-.19,1.43c.2.37.48.49.45.56s-.39.07-.75-.35a1.5,1.5,0,0,1-.33-.9,1.57,1.57,0,0,1,.44-1.09,1.8,1.8,0,0,1,1.95-.45C245.75,116.58,245.94,116.85,245.9,116.9Z" style="fill: rgb(235, 153, 110); transform-origin: 244.388px 117.744px;" id="ely7xtihuhj3e" class="animable"></path><path d="M224.9,105.5a4.06,4.06,0,0,1-1.86.36,9.5,9.5,0,0,1-8-3.88,4,4,0,0,1-.87-1.68c.07,0,.42.59,1.16,1.45a10.5,10.5,0,0,0,7.69,3.74C224.18,105.53,224.89,105.42,224.9,105.5Z" style="fill: rgb(69, 90, 100); transform-origin: 219.535px 103.083px;" id="elpkc69i0sdw" class="animable"></path><path d="M220.23,96.42A7.13,7.13,0,0,1,221,101a7,7,0,0,1-1.73,4.31,20.76,20.76,0,0,0,1.22-4.36A21.5,21.5,0,0,0,220.23,96.42Z" style="fill: rgb(69, 90, 100); transform-origin: 220.184px 100.865px;" id="elrhdk3rji5jd" class="animable"></path><path d="M261.8,105.78a1.53,1.53,0,0,1-.13.39,4.48,4.48,0,0,1-.65,1,6.53,6.53,0,0,1-3.73,2,14.11,14.11,0,0,1-6.3-.58c-2.27-.59-4.79-1.45-7.45-1.14s-4.64,2.28-7,3a7.18,7.18,0,0,1-3.43.14,10,10,0,0,1-2.8-1,18.77,18.77,0,0,1-3.47-2.48,8.88,8.88,0,0,1-1.12-1.07,10.45,10.45,0,0,1,1.25.92,22.12,22.12,0,0,0,3.51,2.31,8.05,8.05,0,0,0,5.92.73,16.75,16.75,0,0,0,3.27-1.61,10,10,0,0,1,3.8-1.41c2.83-.32,5.4.59,7.65,1.19a14.29,14.29,0,0,0,6.1.69,6.63,6.63,0,0,0,3.65-1.8A11,11,0,0,0,261.8,105.78Z" style="fill: rgb(69, 90, 100); transform-origin: 243.76px 108.257px;" id="elyiahe890p6s" class="animable"></path><path d="M251.72,112a9.26,9.26,0,0,0-4.4-.65,17.17,17.17,0,0,0-4.7,1.23,57.32,57.32,0,0,1-5.67,2.17,10.84,10.84,0,0,1-6.1.08,11,11,0,0,1-4.37-2.4,10,10,0,0,1-2.11-2.62A6.11,6.11,0,0,1,224,109c-.08-.2-.11-.3-.09-.31a13.82,13.82,0,0,0,2.83,3.47,11.27,11.27,0,0,0,4.26,2.22,10.68,10.68,0,0,0,5.84-.12c2-.57,3.88-1.46,5.63-2.11a16.3,16.3,0,0,1,4.85-1.16,8,8,0,0,1,3.33.44,5.12,5.12,0,0,1,.83.39C251.64,111.88,251.73,111.94,251.72,112Z" style="fill: rgb(69, 90, 100); transform-origin: 237.812px 111.959px;" id="elkellbddqk" class="animable"></path><path d="M259.29,102.68s-.09.1-.27.25a8,8,0,0,1-.87.58,10.45,10.45,0,0,1-3.64,1.24,16.37,16.37,0,0,1-5.71-.15,49,49,0,0,1-6.68-1.93,40.82,40.82,0,0,0-6.64-1.82,15.29,15.29,0,0,0-5.55,0,5,5,0,0,0-3.94,2.93s0-.13.06-.36a3.64,3.64,0,0,1,.5-.94,6,6,0,0,1,3.29-2,14.68,14.68,0,0,1,5.71-.16,38.75,38.75,0,0,1,6.73,1.79,52.42,52.42,0,0,0,6.62,2,16.73,16.73,0,0,0,5.55.26A12.76,12.76,0,0,0,259.29,102.68Z" style="fill: rgb(69, 90, 100); transform-origin: 242.64px 102.523px;" id="el7n3qa4jeue" class="animable"></path><path d="M221.63,115.91s.11.48.4,1.29a8.17,8.17,0,0,0,1.94,3,7.31,7.31,0,0,0,4.8,2.06,9.7,9.7,0,0,0,6-2.21,26.17,26.17,0,0,0,2.63-2.23,16.15,16.15,0,0,1,2.58-2,11.64,11.64,0,0,1,5.22-1.86,9.26,9.26,0,0,1,3.72.4,5.67,5.67,0,0,1,.95.36c.21.1.31.16.31.18s-.47-.15-1.31-.35a10.32,10.32,0,0,0-3.63-.23,11.8,11.8,0,0,0-5,1.9,17.46,17.46,0,0,0-2.49,2,24.09,24.09,0,0,1-2.67,2.29,14,14,0,0,1-3.1,1.73,7.71,7.71,0,0,1-3.28.54,7.5,7.5,0,0,1-5-2.29,7.79,7.79,0,0,1-1.87-3.23,7.23,7.23,0,0,1-.21-1Q221.6,115.93,221.63,115.91Z" style="fill: rgb(69, 90, 100); transform-origin: 235.896px 118.354px;" id="elkqfvc5jmpel" class="animable"></path><path d="M180.83,162.45l-9.3,20-8.86,17.12,46.58,20.48,14.68-32.37c3.59-7.49,7.51-15.21,10.91-22.07,3.68.46,37.87,4.77,40,5.53S314,147.32,314,147.32a127.89,127.89,0,0,0-7-12.42s-30.51,15.47-32.77,16.17S243.24,141,243.24,141c-6.11-2.75-14.09-8.31-22.16-12a19.54,19.54,0,0,0-23.83,6C193.05,140.68,187.52,149.33,180.83,162.45Z" style="fill: #CE78D5; transform-origin: 238.335px 173.622px;" id="eljs1snm4mmb" class="animable"></path><path d="M201.88,153.91a17.07,17.07,0,0,1-1-5.83,17.07,17.07,0,0,1,1,5.83Z" style="fill: rgb(38, 50, 56); transform-origin: 201.38px 150.995px;" id="elfuxjfm75l7w" class="animable"></path><path d="M206.66,164.8a17.57,17.57,0,0,1-3.77,2,17.52,17.52,0,0,1-4,1.56,17.85,17.85,0,0,1,3.77-2A17.37,17.37,0,0,1,206.66,164.8Z" style="fill: rgb(38, 50, 56); transform-origin: 202.775px 166.58px;" id="elkeaq129asm" class="animable"></path><path d="M189.76,162.14a6.78,6.78,0,0,1-.16-2.63,7,7,0,0,1,.35-2.61,13.09,13.09,0,0,1-.19,5.24Z" style="fill: rgb(38, 50, 56); transform-origin: 189.834px 159.52px;" id="eljj8omq9geon" class="animable"></path><path d="M193.28,170.18a12.05,12.05,0,0,1-3.38.81,11.73,11.73,0,0,1-3.46.3,11.18,11.18,0,0,1,3.38-.81A11.73,11.73,0,0,1,193.28,170.18Z" style="fill: rgb(38, 50, 56); transform-origin: 189.86px 170.735px;" id="elr0kk7fxalbd" class="animable"></path><path d="M192.45,177.87a7.9,7.9,0,0,1,.42,2.78,7.65,7.65,0,0,1-.11,2.81,15.47,15.47,0,0,1-.31-5.59Z" style="fill: rgb(38, 50, 56); transform-origin: 192.639px 180.665px;" id="el2w15qnv87t3" class="animable"></path><path d="M182.64,180.68a11.06,11.06,0,0,1-3,1.61,11.79,11.79,0,0,1-3.26,1.14,11.06,11.06,0,0,1,3-1.61A11.68,11.68,0,0,1,182.64,180.68Z" style="fill: rgb(38, 50, 56); transform-origin: 179.51px 182.055px;" id="elrte9kzi7ogr" class="animable"></path><path d="M185.46,193.66a6.54,6.54,0,0,1-.9-3.08,6.66,6.66,0,0,1,.17-3.2,20.36,20.36,0,0,1,.35,3.14A22,22,0,0,1,185.46,193.66Z" style="fill: rgb(38, 50, 56); transform-origin: 184.95px 190.52px;" id="elt830hfxnrpe" class="animable"></path><path d="M175.21,197a5.55,5.55,0,0,1,.37-2.33,5.41,5.41,0,0,1,.87-2.2,5.55,5.55,0,0,1-.37,2.33A5.41,5.41,0,0,1,175.21,197Z" style="fill: rgb(38, 50, 56); transform-origin: 175.83px 194.735px;" id="elxb7sb4f2yf" class="animable"></path><path d="M190.74,206.78a7.57,7.57,0,0,1-2.33-1.54c-1.2-1-2.09-1.85-2-2a7.73,7.73,0,0,1,2.33,1.55C189.94,205.8,190.83,206.67,190.74,206.78Z" style="fill: rgb(38, 50, 56); transform-origin: 188.575px 205.01px;" id="elieyy0c9eufl" class="animable"></path><path d="M198.38,193.73a9.95,9.95,0,0,1-3,5,12.43,12.43,0,0,1,1.43-2.54A12.67,12.67,0,0,1,198.38,193.73Z" style="fill: rgb(38, 50, 56); transform-origin: 196.88px 196.23px;" id="el924hjierjsr" class="animable"></path><path d="M205.2,211a7.42,7.42,0,0,1-.69-2.93,7.08,7.08,0,0,1,0-3A11.36,11.36,0,0,1,205,208,11,11,0,0,1,205.2,211Z" style="fill: rgb(38, 50, 56); transform-origin: 204.788px 208.035px;" id="elmd8oily9o0e" class="animable"></path><path d="M213.16,198.11s.1-.08.3-.12l0,.2a26.07,26.07,0,0,1-3.35.57,13.62,13.62,0,0,1-3.7.2,13,13,0,0,1,3.64-.71,26.69,26.69,0,0,1,3.38-.26l0,.2C213.27,198.17,213.16,198.14,213.16,198.11Z" style="fill: rgb(38, 50, 56); transform-origin: 209.935px 198.498px;" id="el1nv2o4607yo" class="animable"></path><path d="M205.77,190.89a19.26,19.26,0,0,1-.88-7.28,15.65,15.65,0,0,1,.6,3.62A15.76,15.76,0,0,1,205.77,190.89Z" style="fill: rgb(38, 50, 56); transform-origin: 205.312px 187.25px;" id="ell0m4rlj91gs" class="animable"></path><path d="M218.55,183.27a39.07,39.07,0,0,1-5.61,1.75,10.63,10.63,0,0,1,5.61-1.75Z" style="fill: rgb(38, 50, 56); transform-origin: 215.745px 184.145px;" id="elhxu2etez00m" class="animable"></path><path d="M208.89,173.65a14.77,14.77,0,0,1-5.4,1.23,7.5,7.5,0,0,1,2.64-.87A7.58,7.58,0,0,1,208.89,173.65Z" style="fill: rgb(38, 50, 56); transform-origin: 206.19px 174.259px;" id="el9iwrdg70kc" class="animable"></path><path d="M217.32,172.49a13.41,13.41,0,0,1-.68-3.66,13.45,13.45,0,0,1-.17-3.72,13.4,13.4,0,0,1,.69,3.66A13.68,13.68,0,0,1,217.32,172.49Z" style="fill: rgb(38, 50, 56); transform-origin: 216.896px 168.8px;" id="el8pxx3lit2yu" class="animable"></path><path d="M230.57,166.27a13.67,13.67,0,0,1-2,3.12,13.32,13.32,0,0,1-2.45,2.8,14,14,0,0,1,2-3.12A13.34,13.34,0,0,1,230.57,166.27Z" style="fill: rgb(38, 50, 56); transform-origin: 228.345px 169.23px;" id="elp67nzyd1l5h" class="animable"></path><path d="M223.63,164.71a10.56,10.56,0,0,1,.34-3.27,10.78,10.78,0,0,1,.85-3.17,10.56,10.56,0,0,1-.34,3.27A10.78,10.78,0,0,1,223.63,164.71Z" style="fill: rgb(38, 50, 56); transform-origin: 224.225px 161.49px;" id="elbbwe7mmbsd" class="animable"></path><path d="M215.71,156.24a23.5,23.5,0,0,1-6.9-.47,11.34,11.34,0,0,1,3.47,0A12.18,12.18,0,0,1,215.71,156.24Z" style="fill: rgb(38, 50, 56); transform-origin: 212.26px 155.976px;" id="el3jv4hz0swnu" class="animable"></path><path d="M197,140a36.87,36.87,0,0,1-2,3.42,34.45,34.45,0,0,1-2,3.45,10,10,0,0,1,1.51-3.71A9.93,9.93,0,0,1,197,140Z" style="fill: rgb(38, 50, 56); transform-origin: 195px 143.435px;" id="el1bj9xn1iin8" class="animable"></path><path d="M206.19,140.25a6.89,6.89,0,0,1-.53-3.07,6.57,6.57,0,0,1,.43-3.07,16.09,16.09,0,0,1,.1,3.07A15.52,15.52,0,0,1,206.19,140.25Z" style="fill: rgb(38, 50, 56); transform-origin: 205.947px 137.18px;" id="el23dwtgtia6v" class="animable"></path><path d="M216.62,130.13a10.06,10.06,0,0,1-2.77.74,9.81,9.81,0,0,1-2.84.42,11.64,11.64,0,0,1,5.61-1.16Z" style="fill: rgb(38, 50, 56); transform-origin: 213.815px 130.704px;" id="elpaby75tqgag" class="animable"></path><path d="M216.4,144a16.67,16.67,0,0,1-2.55,1.55,17.11,17.11,0,0,1-2.57,1.53A9,9,0,0,1,216.4,144Z" style="fill: rgb(38, 50, 56); transform-origin: 213.84px 145.54px;" id="elq1x4sdmp5qf" class="animable"></path><path d="M221.61,140.92a9.55,9.55,0,0,1-2.28-2.14,10,10,0,0,1-1.9-2.48,18.17,18.17,0,0,1,4.18,4.62Z" style="fill: rgb(38, 50, 56); transform-origin: 219.52px 138.61px;" id="els2fojj6igt" class="animable"></path><path d="M179.82,172a6.35,6.35,0,0,1,1-2.63,6.25,6.25,0,0,1,1.66-2.28,27.69,27.69,0,0,1-2.65,4.91Z" style="fill: rgb(38, 50, 56); transform-origin: 181.15px 169.545px;" id="els5onvi882me" class="animable"></path><path d="M168,197.21a7.79,7.79,0,0,1,.88-2.73,8,8,0,0,1,1.36-2.53,8,8,0,0,1-.88,2.73A8.32,8.32,0,0,1,168,197.21Z" style="fill: rgb(38, 50, 56); transform-origin: 169.12px 194.58px;" id="el6s36u9v9wdb" class="animable"></path><path d="M227.74,148a12.37,12.37,0,0,1-3.24,1.44,12,12,0,0,1-3.41,1,12.57,12.57,0,0,1,3.24-1.44A12,12,0,0,1,227.74,148Z" style="fill: rgb(38, 50, 56); transform-origin: 224.415px 149.22px;" id="elremqmt3bb0p" class="animable"></path><path d="M237.27,141.59a13.28,13.28,0,0,1-2.84-1.25,14,14,0,0,1-2.75-1.43,11.58,11.58,0,0,1,5.59,2.68Z" style="fill: rgb(69, 90, 100); transform-origin: 234.475px 140.25px;" id="el49n15x4g49h" class="animable"></path><path d="M237,153.85a5.89,5.89,0,0,1-.88-2.85,6,6,0,0,1,.1-3,15.06,15.06,0,0,1,.41,2.92A15.86,15.86,0,0,1,237,153.85Z" style="fill: rgb(38, 50, 56); transform-origin: 236.488px 150.925px;" id="els9vsoor8s8" class="animable"></path><path d="M236.31,160.08a9,9,0,0,1-2.26-2.42,8.72,8.72,0,0,1-1.65-2.88,13.84,13.84,0,0,1,2.07,2.57A13.54,13.54,0,0,1,236.31,160.08Z" style="fill: rgb(38, 50, 56); transform-origin: 234.355px 157.43px;" id="elcobaim7fb85" class="animable"></path><path d="M247.08,158.84c.07.14-.85.69-2,1.39s-2,1.28-2.11,1.16.69-.89,1.83-1.6A4.81,4.81,0,0,1,247.08,158.84Z" style="fill: rgb(38, 50, 56); transform-origin: 245.022px 160.123px;" id="elej6ojnvvnrb" class="animable"></path><path d="M244.33,149.68a5.87,5.87,0,0,1-.78-2.53,5.63,5.63,0,0,1-.06-2.63,8.47,8.47,0,0,1,.58,2.55A8.36,8.36,0,0,1,244.33,149.68Z" style="fill: rgb(38, 50, 56); transform-origin: 243.853px 147.1px;" id="eljt4jja4cyyh" class="animable"></path><path d="M253.88,153.27a12.08,12.08,0,0,1-3.47.07,11.6,11.6,0,0,1-3.43-.45,12,12,0,0,1,3.46-.07A11.25,11.25,0,0,1,253.88,153.27Z" style="fill: rgb(38, 50, 56); transform-origin: 250.43px 153.08px;" id="ellinhmct1jt" class="animable"></path><path d="M263.09,152.26a9.64,9.64,0,0,1-5.28-3.13,17.37,17.37,0,0,1,2.65,1.55A17.55,17.55,0,0,1,263.09,152.26Z" style="fill: rgb(38, 50, 56); transform-origin: 260.45px 150.695px;" id="elqpe812sn9sd" class="animable"></path><path d="M258.45,164.68a27.43,27.43,0,0,1-7.46-.29,13.64,13.64,0,0,1,3.74-.12A13.17,13.17,0,0,1,258.45,164.68Z" style="fill: rgb(38, 50, 56); transform-origin: 254.72px 164.502px;" id="elvf5c106r16r" class="animable"></path><path d="M262.3,161.16a18.7,18.7,0,0,1-5.29-3.22,18.7,18.7,0,0,1,5.29,3.22Z" style="fill: rgb(38, 50, 56); transform-origin: 259.655px 159.55px;" id="elim4c44bkt5m" class="animable"></path><path d="M270.55,160.87a6.72,6.72,0,0,1-.74-2.59,7.1,7.1,0,0,1-.23-2.68,7.25,7.25,0,0,1,.74,2.59A7.11,7.11,0,0,1,270.55,160.87Z" style="fill: rgb(38, 50, 56); transform-origin: 270.065px 158.235px;" id="elnls6ckdqb" class="animable"></path><path d="M272.23,166.07a14.49,14.49,0,0,1-7.3,1.27,22.81,22.81,0,0,1,3.64-.67A23.2,23.2,0,0,1,272.23,166.07Z" style="fill: rgb(38, 50, 56); transform-origin: 268.58px 166.732px;" id="eli23dseea09q" class="animable"></path><path d="M278.32,164.53a11.71,11.71,0,0,1,.74-4.88,11.71,11.71,0,0,1-.74,4.88Z" style="fill: rgb(38, 50, 56); transform-origin: 278.69px 162.09px;" id="el5ho9591bjem" class="animable"></path><path d="M279.94,154.4a5.3,5.3,0,0,1-4.6-.09,11.17,11.17,0,0,1,2.3.05A11.36,11.36,0,0,1,279.94,154.4Z" style="fill: rgb(38, 50, 56); transform-origin: 277.64px 154.577px;" id="elv92uusfljas" class="animable"></path><path d="M285.56,152.42a16,16,0,0,1,1.23-5.64,8.18,8.18,0,0,1-.36,2.87A8.28,8.28,0,0,1,285.56,152.42Z" style="fill: rgb(38, 50, 56); transform-origin: 286.181px 149.6px;" id="elvsmzz06xezp" class="animable"></path><path d="M290.57,159.26a14.42,14.42,0,0,1-3.8-.76,14.78,14.78,0,0,1-3.67-1.25,14.22,14.22,0,0,1,3.8.75A14.55,14.55,0,0,1,290.57,159.26Z" style="fill: rgb(38, 50, 56); transform-origin: 286.835px 158.255px;" id="elecq9semd0zm" class="animable"></path><path d="M297.54,152.92a5.91,5.91,0,0,1-2.06,1.3,5.8,5.8,0,0,1-2.29.83,5.91,5.91,0,0,1,2.06-1.3A5.8,5.8,0,0,1,297.54,152.92Z" style="fill: rgb(38, 50, 56); transform-origin: 295.365px 153.985px;" id="el66b4w5of422" class="animable"></path><path d="M292.44,150.9a10.23,10.23,0,0,1,1.63-2.86,10.61,10.61,0,0,1,2.06-2.57,20.91,20.91,0,0,1-3.69,5.43Z" style="fill: rgb(38, 50, 56); transform-origin: 294.285px 148.185px;" id="eluce1apzgwap" class="animable"></path><path d="M302.93,140.62a8.32,8.32,0,0,1-2.84.47,8.42,8.42,0,0,1-2.88-.05,15.9,15.9,0,0,1,5.72-.42Z" style="fill: rgb(38, 50, 56); transform-origin: 300.07px 140.859px;" id="elub28gxu6ui" class="animable"></path><path d="M304.82,144a8.25,8.25,0,0,1,.52-2.88,8.61,8.61,0,0,1,1-2.75,8.29,8.29,0,0,1-.52,2.89A8.61,8.61,0,0,1,304.82,144Z" style="fill: rgb(38, 50, 56); transform-origin: 305.58px 141.185px;" id="elsfsbnmo18w" class="animable"></path><path d="M306.08,148.24a7.37,7.37,0,0,1-2.68.21,7.25,7.25,0,0,1-2.67-.31,6.88,6.88,0,0,1,2.68-.21A6.74,6.74,0,0,1,306.08,148.24Z" style="fill: rgb(38, 50, 56); transform-origin: 303.405px 148.186px;" id="els80n3wpc93r" class="animable"></path></g><defs>     <filter id="active" height="200%">         <feMorphology in="SourceAlpha" result="DILATED" operator="dilate" radius="2"></feMorphology>                <feFlood flood-color="#32DFEC" flood-opacity="1" result="PINK"></feFlood>        <feComposite in="PINK" in2="DILATED" operator="in" result="OUTLINE"></feComposite>        <feMerge>            <feMergeNode in="OUTLINE"></feMergeNode>            <feMergeNode in="SourceGraphic"></feMergeNode>        </feMerge>    </filter>    <filter id="hover" height="200%">        <feMorphology in="SourceAlpha" result="DILATED" operator="dilate" radius="2"></feMorphology>                <feFlood flood-color="#ff0000" flood-opacity="0.5" result="PINK"></feFlood>        <feComposite in="PINK" in2="DILATED" operator="in" result="OUTLINE"></feComposite>        <feMerge>            <feMergeNode in="OUTLINE"></feMergeNode>            <feMergeNode in="SourceGraphic"></feMergeNode>        </feMerge>            <feColorMatrix type="matrix" values="0   0   0   0   0                0   1   0   0   0                0   0   0   0   0                0   0   0   1   0 "></feColorMatrix>    </filter></defs></svg>